<svg width="40" height="40" viewBox="0 0 40 40" fill="none" xmlns="http://www.w3.org/2000/svg">
<circle cx="20" cy="20" r="20" fill="#008097"/>
<path fill-rule="evenodd" clip-rule="evenodd" d="M23.5238 11.2822H16.4764C13.6122 11.2822 11.2821 13.6124 11.2821 16.4765V23.5239C11.2821 26.388 13.6122 28.7181 16.4764 28.7181H23.5238C26.3879 28.7181 28.718 26.388 28.718 23.5239V16.4765C28.718 13.6124 26.3878 11.2822 23.5238 11.2822ZM26.964 23.5235C26.964 25.4235 25.4238 26.9637 23.5238 26.9637H16.4764C14.5765 26.9637 13.0362 25.4235 13.0362 23.5235V16.4761C13.0362 14.5761 14.5765 13.0359 16.4764 13.0359H23.5238C25.4238 13.0359 26.964 14.5761 26.964 16.4761V23.5235ZM15.4906 20.0002C15.4906 17.5136 17.5135 15.4906 20.0001 15.4906C22.4867 15.4906 24.5097 17.5136 24.5097 20.0002C24.5097 22.4867 22.4867 24.5097 20.0001 24.5097C17.5135 24.5097 15.4906 22.4867 15.4906 20.0002ZM20.0002 22.7561C18.4784 22.7561 17.2447 21.5225 17.2447 20.0006C17.2447 18.4788 18.4784 17.2451 20.0002 17.2451C21.522 17.2451 22.7557 18.4788 22.7557 20.0006C22.7557 21.5224 21.522 22.7561 20.0002 22.7561ZM24.5184 16.6057C25.1152 16.6057 25.599 16.1219 25.599 15.5251C25.599 14.9283 25.1152 14.4445 24.5184 14.4445C23.9216 14.4445 23.4378 14.9283 23.4378 15.5251C23.4378 16.1219 23.9216 16.6057 24.5184 16.6057Z" fill="white"/>
</svg>
