<svg width="40" height="40" viewBox="0 0 40 40" fill="none" xmlns="http://www.w3.org/2000/svg">
<circle cx="20" cy="20" r="20" fill="#008097"/>
<path fill-rule="evenodd" clip-rule="evenodd" d="M16.0313 17.0746H13.0532V26.6657H16.0313V17.0746ZM16.2749 14.0369C16.2749 13.0833 15.5 12.3071 14.5479 12.3071C13.5902 12.3071 12.8208 13.0833 12.8208 14.0369C12.8208 14.9904 13.5902 15.7666 14.5479 15.7666C15.5 15.7666 16.2749 14.9904 16.2749 14.0369ZM20.7531 17.075H17.9079V26.6661H20.8804V21.9204C20.8804 20.673 21.1129 19.4589 22.6628 19.4589C24.1906 19.4589 24.2072 20.8893 24.2072 22.0036V26.6661H27.1797V21.4104C27.1797 18.8269 26.6207 16.8421 23.6094 16.8421C22.1591 16.8421 21.1904 17.6349 20.7918 18.3889H20.7531V17.075Z" fill="white"/>
</svg>
