<svg width="40" height="40" viewBox="0 0 40 40" fill="none" xmlns="http://www.w3.org/2000/svg">
<circle cx="20" cy="20" r="20" fill="#008097"/>
<path d="M28.2331 15.1241C27.2186 15.1241 26.2824 14.788 25.5307 14.221C24.6686 13.571 24.0491 12.6175 23.8304 11.5186C23.7762 11.247 23.747 10.9668 23.7442 10.6797H20.846V18.5991L20.8425 22.937C20.8425 24.0967 20.0873 25.08 19.0404 25.4259C18.7366 25.5262 18.4085 25.5738 18.0668 25.555C17.6307 25.5311 17.222 25.3995 16.8668 25.187C16.1109 24.7349 15.5984 23.9148 15.5845 22.9766C15.5626 21.5102 16.7481 20.3148 18.2133 20.3148C18.5026 20.3148 18.7804 20.362 19.0404 20.4477V18.2832V17.505C18.7661 17.4644 18.487 17.4432 18.2047 17.4432C16.6008 17.4432 15.1008 18.1099 14.0286 19.3109C13.2182 20.2186 12.7321 21.3766 12.6571 22.5908C12.5588 24.1859 13.1425 25.7023 14.2745 26.821C14.4408 26.9852 14.6154 27.1377 14.7981 27.2783C15.7686 28.0252 16.955 28.43 18.2047 28.43C18.487 28.43 18.7661 28.4092 19.0404 28.3686C20.2078 28.1957 21.2849 27.6613 22.1349 26.821C23.1793 25.7887 23.7564 24.4182 23.7626 22.9596L23.7477 16.4818C24.246 16.8661 24.7908 17.1842 25.3755 17.4311C26.2849 17.8148 27.2491 18.0092 28.2415 18.0089V15.9043V15.1234C28.2422 15.1241 28.2338 15.1241 28.2331 15.1241Z" fill="white"/>
</svg>
