<svg width="40" height="40" viewBox="0 0 40 40" fill="none" xmlns="http://www.w3.org/2000/svg">
<circle cx="20" cy="20" r="20" fill="#008097"/>
<path fill-rule="evenodd" clip-rule="evenodd" d="M28.3077 13.8972C28.8488 14.5173 29.0398 15.9205 29.0398 15.9205C29.0398 15.9205 29.2308 17.5849 29.2308 19.2492V20.783C29.2308 22.4147 29.0398 24.0791 29.0398 24.0791C29.0398 24.0791 28.8489 25.4823 28.3077 26.1024C27.6418 26.8472 26.8895 26.9132 26.5162 26.946C26.497 26.9477 26.4788 26.9493 26.4616 26.9509C23.8834 27.1793 20.0001 27.1793 20.0001 27.1793C20.0001 27.1793 15.1937 27.1466 13.7295 26.9835C13.6517 26.9651 13.5559 26.9513 13.447 26.9356C12.9765 26.8679 12.261 26.7649 11.6924 26.1024C11.1513 25.4824 10.9603 24.0791 10.9603 24.0791C10.9603 24.0791 10.7693 22.4474 10.7693 20.783V19.2492C10.7693 17.5849 10.9603 15.9205 10.9603 15.9205C10.9603 15.9205 11.1194 14.5173 11.6924 13.8972C12.3583 13.1524 13.1106 13.0864 13.4839 13.0536C13.5031 13.0519 13.5214 13.0503 13.5385 13.0487C16.1168 12.853 20.0001 12.8203 20.0001 12.8203C20.0001 12.8203 23.8834 12.853 26.4616 13.0487C26.4882 13.0512 26.5173 13.0535 26.5488 13.056C26.932 13.0861 27.6606 13.1433 28.3077 13.8972ZM17.7718 23.7856V16.704L23.8195 20.3264L17.7718 23.7856Z" fill="white"/>
</svg>
